HIERARCHY
ROOT Hips
{
	OFFSET 3.281330 79.528656 0.112747
	CHANNELS 6 Xposition Yposition Zposition Zrotation Yrotation Xrotation 
	JOINT Spine
	{
		OFFSET 0.000000 8.814246 -2.080107
		CHANNELS 3 Zrotation Yrotation Xrotation
		JOINT Spine1
		{
			OFFSET 0.000000 8.844141 -0.000000
			CHANNELS 3 Zrotation Yrotation Xrotation
			JOINT Spine2
			{
				OFFSET -0.000000 11.682268 -0.000000
				CHANNELS 3 Zrotation Yrotation Xrotation
				JOINT Spine3
				{
					OFFSET 0.000000 11.746700 0.000000
					CHANNELS 3 Zrotation Yrotation Xrotation
					JOINT Neck
					{
						OFFSET 0.000000 17.658264 0.000000
						CHANNELS 3 Zrotation Yrotation Xrotation
						JOINT Neck1
						{
							OFFSET -0.000000 5.101515 -0.000000
							CHANNELS 3 Zrotation Yrotation Xrotation
							JOINT Head
							{
								OFFSET 0.000000 5.101515 -0.000000
								CHANNELS 3 Zrotation Yrotation Xrotation
								JOINT HeadEnd
								{
									OFFSET 0.000000 11.655085 -0.000000
									CHANNELS 3 Zrotation Yrotation Xrotation
									End Site
									{
										OFFSET 0.000000 0.000000 0.000000
									}
								}
							}
						}
					}
					JOINT RightShoulder
					{
						OFFSET -2.625389 11.175210 0.000000
						CHANNELS 3 Zrotation Yrotation Xrotation
						JOINT RightArm
						{
							OFFSET -0.000000 10.434715 -0.000000
							CHANNELS 3 Zrotation Yrotation Xrotation
							JOINT RightForeArm
							{
								OFFSET 0.000000 29.628420 0.000000
								CHANNELS 3 Zrotation Yrotation Xrotation
								JOINT RightHand
								{
									OFFSET 0.000000 22.857611 0.000000
									CHANNELS 3 Zrotation Yrotation Xrotation
									JOINT RightHandThumb1
									{
										OFFSET -2.867323 3.959563 2.944291
										CHANNELS 3 Zrotation Yrotation Xrotation
										JOINT RightHandThumb2
										{
											OFFSET -0.000000 3.350399 -0.000000
											CHANNELS 3 Zrotation Yrotation Xrotation
											JOINT RightHandThumb3
											{
												OFFSET 0.000000 3.756509 0.000000
												CHANNELS 3 Zrotation Yrotation Xrotation
												JOINT RightHandThumb4
												{
													OFFSET -0.000000 3.147345 -0.000000
													CHANNELS 3 Zrotation Yrotation Xrotation
													End Site
													{
														OFFSET 0.000000 0.000000 0.000000
													}
												}
											}
										}
									}
									JOINT RightHandIndex1
									{
										OFFSET -0.086752 10.030893 2.345280
										CHANNELS 3 Zrotation Yrotation Xrotation
										JOINT RightHandIndex2
										{
											OFFSET -0.000000 4.061090 -0.000000
											CHANNELS 3 Zrotation Yrotation Xrotation
											JOINT RightHandIndex3
											{
												OFFSET 0.000000 3.248873 0.000000
												CHANNELS 3 Zrotation Yrotation Xrotation
												JOINT RightHandIndex4
												{
													OFFSET -0.000000 2.639709 0.000000
													CHANNELS 3 Zrotation Yrotation Xrotation
													End Site
													{
														OFFSET 0.000000 0.000000 0.000000
													}
												}
											}
										}
									}
									JOINT RightHandMiddle1
									{
										OFFSET 0.104102 9.502952 0.006768
										CHANNELS 3 Zrotation Yrotation Xrotation
										JOINT RightHandMiddle2
										{
											OFFSET -0.000000 4.568727 -0.000000
											CHANNELS 3 Zrotation Yrotation Xrotation
											JOINT RightHandMiddle3
											{
												OFFSET 0.000000 3.654981 0.000000
												CHANNELS 3 Zrotation Yrotation Xrotation
												JOINT RightHandMiddle4
												{
													OFFSET 0.000000 2.741236 0.000000
													CHANNELS 3 Zrotation Yrotation Xrotation
													End Site
													{
														OFFSET 0.000000 0.000000 0.000000
													}
												}
											}
										}
									}
									JOINT RightHandRing1
									{
										OFFSET 0.086752 8.921708 -2.267442
										CHANNELS 3 Zrotation Yrotation Xrotation
										JOINT RightHandRing2
										{
											OFFSET 0.000000 4.061090 0.000000
											CHANNELS 3 Zrotation Yrotation Xrotation
											JOINT RightHandRing3
											{
												OFFSET -0.000000 3.654981 -0.000000
												CHANNELS 3 Zrotation Yrotation Xrotation
												JOINT RightHandRing4
												{
													OFFSET 0.000000 2.741236 0.000000
													CHANNELS 3 Zrotation Yrotation Xrotation
													End Site
													{
														OFFSET 0.000000 0.000000 0.000000
													}
												}
											}
										}
									}
									JOINT RightHandPinky1
									{
										OFFSET -0.173504 7.976997 -4.467199
										CHANNELS 3 Zrotation Yrotation Xrotation
										JOINT RightHandPinky2
										{
											OFFSET 0.000000 3.350399 0.000000
											CHANNELS 3 Zrotation Yrotation Xrotation
											JOINT RightHandPinky3
											{
												OFFSET 0.000000 2.842763 0.000000
												CHANNELS 3 Zrotation Yrotation Xrotation
												JOINT RightHandPinky4
												{
													OFFSET 0.000000 2.639709 -0.000000
													CHANNELS 3 Zrotation Yrotation Xrotation
													End Site
													{
														OFFSET 0.000000 0.000000 0.000000
													}
												}
											}
										}
									}
									JOINT RightForeArmEnd
									{
										OFFSET 0.000000 0.000000 0.000000
										CHANNELS 3 Zrotation Yrotation Xrotation
										End Site
										{
											OFFSET 0.000000 0.000000 0.000000
										}
									}
								}
								JOINT RightArmEnd
								{
									OFFSET 0.000000 0.000000 0.000000
									CHANNELS 3 Zrotation Yrotation Xrotation
									End Site
									{
										OFFSET 0.000000 0.000000 0.000000
									}
								}
							}
						}
					}
					JOINT LeftShoulder
					{
						OFFSET 2.625389 11.175210 0.000000
						CHANNELS 3 Zrotation Yrotation Xrotation
						JOINT LeftArm
						{
							OFFSET 0.000000 10.813635 -0.000000
							CHANNELS 3 Zrotation Yrotation Xrotation
							JOINT LeftForeArm
							{
								OFFSET 0.000000 28.724781 0.000000
								CHANNELS 3 Zrotation Yrotation Xrotation
								JOINT LeftHand
								{
									OFFSET 0.644384 25.716167 -0.328871
									CHANNELS 3 Zrotation Yrotation Xrotation
									JOINT LeftHandThumb1
									{
										OFFSET 2.867323 3.959563 2.944291
										CHANNELS 3 Zrotation Yrotation Xrotation
										JOINT LeftHandThumb2
										{
											OFFSET 0.000000 3.350399 -0.000000
											CHANNELS 3 Zrotation Yrotation Xrotation
											JOINT LeftHandThumb3
											{
												OFFSET -0.000000 3.756509 0.000000
												CHANNELS 3 Zrotation Yrotation Xrotation
												JOINT LeftHandThumb4
												{
													OFFSET -0.000000 3.100000 0.000000
													CHANNELS 3 Zrotation Yrotation Xrotation
													End Site
													{
														OFFSET 0.000000 0.000000 0.000000
													}
												}
											}
										}
									}
									JOINT LeftHandIndex1
									{
										OFFSET 0.086752 10.030893 2.345280
										CHANNELS 3 Zrotation Yrotation Xrotation
										JOINT LeftHandIndex2
										{
											OFFSET 0.000000 4.061090 -0.000000
											CHANNELS 3 Zrotation Yrotation Xrotation
											JOINT LeftHandIndex3
											{
												OFFSET -0.000000 3.248873 -0.000000
												CHANNELS 3 Zrotation Yrotation Xrotation
												JOINT LeftHandIndex4
												{
													OFFSET 0.000000 2.639709 -0.000000
													CHANNELS 3 Zrotation Yrotation Xrotation
													End Site
													{
														OFFSET 0.000000 0.000000 0.000000
													}
												}
											}
										}
									}
									JOINT LeftHandMiddle1
									{
										OFFSET -0.104102 9.502952 0.006768
										CHANNELS 3 Zrotation Yrotation Xrotation
										JOINT LeftHandMiddle2
										{
											OFFSET 0.000000 4.568727 -0.000000
											CHANNELS 3 Zrotation Yrotation Xrotation
											JOINT LeftHandMiddle3
											{
												OFFSET 0.000000 3.654981 -0.000000
												CHANNELS 3 Zrotation Yrotation Xrotation
												JOINT LeftHandMiddle4
												{
													OFFSET 0.000000 2.741236 0.000000
													CHANNELS 3 Zrotation Yrotation Xrotation
													End Site
													{
														OFFSET 0.000000 0.000000 0.000000
													}
												}
											}
										}
									}
									JOINT LeftHandRing1
									{
										OFFSET -0.086752 8.921708 -2.267442
										CHANNELS 3 Zrotation Yrotation Xrotation
										JOINT LeftHandRing2
										{
											OFFSET 0.000000 4.061090 -0.000000
											CHANNELS 3 Zrotation Yrotation Xrotation
											JOINT LeftHandRing3
											{
												OFFSET -0.000000 3.654981 0.000000
												CHANNELS 3 Zrotation Yrotation Xrotation
												JOINT LeftHandRing4
												{
													OFFSET -0.000000 2.741236 0.000000
													CHANNELS 3 Zrotation Yrotation Xrotation
													End Site
													{
														OFFSET 0.000000 0.000000 0.000000
													}
												}
											}
										}
									}
									JOINT LeftHandPinky1
									{
										OFFSET 0.173504 7.976997 -4.467199
										CHANNELS 3 Zrotation Yrotation Xrotation
										JOINT LeftHandPinky2
										{
											OFFSET -0.000000 3.350399 0.000000
											CHANNELS 3 Zrotation Yrotation Xrotation
											JOINT LeftHandPinky3
											{
												OFFSET 0.000000 2.842763 0.000000
												CHANNELS 3 Zrotation Yrotation Xrotation
												JOINT LeftHandPinky4
												{
													OFFSET 0.000000 2.639709 0.000000
													CHANNELS 3 Zrotation Yrotation Xrotation
													End Site
													{
														OFFSET 0.000000 0.000000 0.000000
													}
												}
											}
										}
									}
									JOINT LeftForeArmEnd
									{
										OFFSET 0.000000 0.000000 0.000000
										CHANNELS 3 Zrotation Yrotation Xrotation
										End Site
										{
											OFFSET 0.000000 0.000000 0.000000
										}
									}
								}
								JOINT LeftArmEnd
								{
									OFFSET 0.000000 0.000000 0.000000
									CHANNELS 3 Zrotation Yrotation Xrotation
									End Site
									{
										OFFSET 0.000000 0.000000 0.000000
									}
								}
							}
						}
					}
				}
			}
		}
	}
	JOINT RightUpLeg
	{
		OFFSET -11.289943 0.000000 0.000000
		CHANNELS 3 Zrotation Yrotation Xrotation
		JOINT RightLeg
		{
			OFFSET 0.000000 -38.200325 -0.000000
			CHANNELS 3 Zrotation Yrotation Xrotation
			JOINT RightFoot
			{
				OFFSET -0.000000 -39.900856 0.000000
				CHANNELS 3 Zrotation Yrotation Xrotation
				JOINT RightToeBase
				{
					OFFSET -0.000000 0.000000 15.261641
					CHANNELS 3 Zrotation Yrotation Xrotation
					JOINT RightToeBaseEnd
					{
						OFFSET -0.000000 -0.000000 7.370709
						CHANNELS 3 Zrotation Yrotation Xrotation
						End Site
						{
							OFFSET 0.000000 0.000000 0.000000
						}
					}
				}
				JOINT RightLegEnd
				{
					OFFSET 0.000000 0.000000 0.000000
					CHANNELS 3 Zrotation Yrotation Xrotation
					End Site
					{
						OFFSET 0.000000 0.000000 0.000000
					}
				}
			}
			JOINT RightUpLegEnd
			{
				OFFSET 0.000000 0.000000 0.000000
				CHANNELS 3 Zrotation Yrotation Xrotation
				End Site
				{
					OFFSET 0.000000 0.000000 0.000000
				}
			}
		}
	}
	JOINT LeftUpLeg
	{
		OFFSET 11.315661 -0.000000 0.000000
		CHANNELS 3 Zrotation Yrotation Xrotation
		JOINT LeftLeg
		{
			OFFSET 0.000000 -38.200325 0.000000
			CHANNELS 3 Zrotation Yrotation Xrotation
			JOINT LeftFoot
			{
				OFFSET -0.000000 -39.900856 -0.000000
				CHANNELS 3 Zrotation Yrotation Xrotation
				JOINT LeftToeBase
				{
					OFFSET -0.000000 0.000000 15.261641
					CHANNELS 3 Zrotation Yrotation Xrotation
					JOINT LeftToeBaseEnd
					{
						OFFSET -0.000000 0.000000 7.539996
						CHANNELS 3 Zrotation Yrotation Xrotation
						End Site
						{
							OFFSET 0.000000 0.000000 0.000000
						}
					}
				}
				JOINT LeftLegEnd
				{
					OFFSET 0.000000 0.000000 0.000000
					CHANNELS 3 Zrotation Yrotation Xrotation
					End Site
					{
						OFFSET 0.000000 0.000000 0.000000
					}
				}
			}
			JOINT LeftUpLegEnd
			{
				OFFSET 0.000000 0.000000 0.000000
				CHANNELS 3 Zrotation Yrotation Xrotation
				End Site
				{
					OFFSET 0.000000 0.000000 0.000000
				}
			}
		}
	}
}
MOTION
Frames: 4
Frame Time: 0.016667
3.281330 79.528656 0.112747 7.288617 1.430340 -11.043211 -1.163165 0.122930 11.989606 0.524202 0.168154 16.374893 -0.396292 3.269778 7.185866 2.021836 1.364516 0.631573 -21.621149 22.805944 -10.160374 4.116134 20.908978 -18.134125 -4.388786 -3.755310 -17.646118 0.000000 0.000000 0.000000 82.286362 1.630692 11.527852 75.993958 -34.988354 1.415501 -1.421202 18.306696 62.894550 -26.804653 -2.776668 11.357303 19.636763 -2.019986 36.247723 0.000001 0.000000 -47.519993 0.000000 0.000000 -33.000000 0.000000 0.000000 0.000000 55.662449 16.259850 -17.450422 40.561363 3.229406 -11.407165 40.602398 3.988891 -10.755341 0.000000 0.000000 0.000000 59.718678 6.795675 -13.944179 42.695293 0.864095 -4.766472 42.709888 1.598987 -4.088129 0.000000 0.000000 0.000000 67.420052 -8.910902 -8.134758 45.866032 -0.751098 6.495105 45.902313 -2.143394 5.058815 0.000000 0.000000 0.000000 68.430504 -25.980194 -2.399693 42.934425 -3.460103 18.787060 43.169674 -6.383597 16.046600 0.000000 0.000000 0.000000 0.000000 0.000000 0.000000 0.000000 0.000000 0.000000 -91.164215 0.178321 6.965616 -74.286964 28.990477 -5.199677 -5.378649 -29.121607 75.399422 31.080061 8.039887 14.023703 -19.337130 2.031679 36.355694 0.000000 0.000000 -46.800003 0.000000 0.000000 -32.500000 0.000000 0.000000 0.000000 -58.237347 16.880554 -6.998862 -37.587856 2.649377 10.691863 -37.620316 3.441630 10.080802 0.000000 0.000000 0.000000 -56.383110 6.966882 -5.603342 -38.739380 0.546943 4.397951 -38.749615 1.326895 3.772022 0.000000 0.000000 0.000000 -56.253784 -8.974304 -4.366258 -39.499748 -0.067310 -5.753642 -39.518379 -1.610421 -4.481144 0.000000 0.000000 0.000000 -53.171436 -25.915270 -4.963830 -35.475388 -1.127229 -15.925672 -35.587296 -4.382868 -13.598704 0.000000 0.000000 0.000000 0.000000 0.000000 0.000000 0.000000 0.000000 0.000000 -14.432409 -9.021624 -15.258129 -0.748376 -0.456866 58.598595 3.342741 -9.074879 -3.071774 0.211054 -0.657354 -27.927450 0.000000 0.000000 0.000000 0.000000 0.000000 0.000000 0.000000 0.000000 0.000000 6.324517 -3.422292 -15.311656 0.436695 0.518820 40.088913 -10.333378 7.767110 13.880889 0.182755 -0.105410 -26.340422 0.000000 0.000000 0.000000 0.000000 0.000000 0.000000 0.000000 0.000000 0.000000 
3.950238 79.494278 0.656312 6.111853 1.345492 -11.449765 -0.180088 -0.239842 12.623467 0.702928 0.222595 14.820748 -0.783945 3.214664 10.704370 1.976709 1.029248 1.506645 -15.598304 17.851231 -5.890706 5.359936 16.617928 -15.119623 -4.835066 -4.252846 -18.182383 0.000000 0.000000 0.000000 84.727699 1.998266 9.711434 72.496513 -35.465588 2.189101 0.024472 18.448626 67.137894 -30.026207 -1.921567 7.557131 19.469599 -2.023977 36.271030 -0.000019 0.000058 -47.370541 -0.000005 0.000015 -33.223579 -0.000005 0.000002 -0.000012 54.107788 16.936634 -15.571357 38.769165 2.278039 -10.972231 39.068592 3.132792 -9.914909 -0.000012 -0.000044 -0.000015 56.621166 6.908928 -11.600576 40.052139 0.346094 -4.462672 40.136322 1.093637 -3.690171 0.000070 -0.000069 0.000007 62.548466 -8.972868 -5.097921 42.640354 -0.244988 6.207271 42.612560 -1.557229 4.760441 0.000020 -0.001227 -0.000000 61.378365 -25.555359 0.730184 38.415356 -2.367271 17.773382 38.895638 -5.260859 14.851033 -0.000298 -0.000005 0.000018 0.000000 0.000000 0.000000 0.000000 0.000000 0.000000 -90.206367 -1.136782 7.151556 -73.798347 23.053841 -5.051121 -3.261191 -27.647982 74.827911 31.427929 5.384198 13.526050 -18.680820 2.109514 36.574245 -0.000005 0.000016 -45.113781 -0.000037 0.000006 -31.208286 -0.001203 -0.000029 -0.001111 -54.778034 16.721891 -7.763356 -34.738590 1.321741 9.831949 -34.707722 2.199989 8.881737 0.000005 0.001421 0.000011 -52.409161 6.831132 -5.998036 -35.650425 -0.050025 3.931324 -35.385265 0.718391 3.258339 0.000455 -0.000039 0.000067 -52.694035 -8.641261 -4.090031 -36.863235 0.461617 -5.285835 -36.936676 -1.004045 -3.990712 -0.000086 0.000006 -0.000011 -50.583370 -24.755096 -3.997564 -33.248135 0.078373 -14.863932 -33.388115 -3.097161 -12.006375 -0.000164 -0.000015 -0.000010 0.000000 0.000000 0.000000 0.000000 0.000000 0.000000 -16.956213 -5.954891 -12.261556 -0.604679 -0.618909 55.425987 7.097376 -9.988999 -3.917404 0.119461 -0.207569 -27.246624 0.000000 0.000000 0.000000 0.000000 0.000000 0.000000 0.000000 0.000000 0.000000 4.535845 0.984174 -15.918324 0.630150 0.897656 43.493256 -7.380836 9.128981 11.502195 -0.469304 -1.127633 -29.431362 0.000000 0.000000 0.000000 0.000000 0.000000 0.000000 0.000000 0.000000 0.000000 
4.604624 79.423386 0.947682 6.214550 1.381267 -11.220212 -0.429422 -0.208869 12.587326 0.805449 0.197627 15.040483 -0.974946 3.265914 10.574643 2.049744 1.012791 1.584791 -15.307937 17.343946 -5.934468 5.424610 16.111475 -15.196388 -4.638704 -4.259558 -18.244869 0.000000 0.000000 0.000000 84.515526 1.952263 9.500365 72.137871 -35.920036 2.406113 0.021762 18.241419 68.457237 -31.435995 -2.134631 8.207121 19.271784 -2.040769 36.320709 -0.000009 0.000043 -46.947361 0.000002 0.000020 -32.942787 0.000003 0.000005 -0.000011 53.153629 16.766075 -15.575532 38.124493 2.215888 -10.748991 38.421017 3.076038 -9.715551 -0.000013 -0.000023 -0.000016 55.712963 6.872529 -11.733212 39.414730 0.322159 -4.368133 39.509121 1.070599 -3.609442 0.000060 -0.000062 0.000007 61.619198 -8.945509 -5.431008 41.961796 -0.204701 6.085319 41.962513 -1.525872 4.665623 0.000011 -0.000972 -0.000003 60.559341 -25.457577 0.338039 37.897026 -2.257245 17.444891 38.367619 -5.161366 14.560698 -0.000282 -0.000000 0.000027 0.000000 0.000000 0.000000 0.000000 0.000000 0.000000 -89.988922 -1.145913 7.068099 -73.814720 22.399126 -5.308202 -3.318110 -26.952888 75.323814 32.539902 6.328088 14.007847 -18.562840 2.124620 36.596771 0.000015 0.000009 -44.866940 -0.000041 0.000009 -31.056810 -0.001267 -0.000011 -0.000902 -54.197124 16.600285 -7.842872 -34.301956 1.296201 9.694263 -34.327534 2.173074 8.748467 0.000011 0.001077 0.000007 -51.909523 6.802435 -6.305396 -35.288551 -0.059872 3.875575 -35.011505 0.708062 3.209853 0.000166 -0.000040 0.000111 -52.244572 -8.620433 -4.444801 -36.535450 0.475876 -5.217701 -36.607285 -0.992149 -3.936712 -0.000341 0.000006 -0.000007 -49.972328 -24.754978 -4.438205 -32.991936 0.119897 -14.670327 -33.063198 -3.062165 -11.837069 -0.000047 -0.000003 -0.000017 0.000000 0.000000 0.000000 0.000000 0.000000 0.000000 -17.565521 -5.995936 -11.777786 -0.607887 -0.620140 55.438602 7.696112 -10.262376 -4.013135 0.074770 -0.206708 -27.385601 0.000000 0.000000 0.000000 0.000000 0.000000 0.000000 0.000000 0.000000 0.000000 3.807849 1.000050 -16.148380 0.621374 0.869186 44.278072 -6.955329 8.935433 10.669372 -0.547786 -1.097047 -29.327328 0.000000 0.000000 0.000000 0.000000 0.000000 0.000000 0.000000 0.000000 0.000000 
5.234679 79.367638 1.213810 6.266692 1.391343 -11.065597 -0.613116 -0.161357 12.566668 0.933712 0.167054 15.309405 -1.215282 3.423561 10.614129 2.059545 1.056063 1.595821 -15.024554 16.932981 -6.214345 5.489739 15.711396 -15.420255 -4.513908 -4.268187 -18.257391 0.000000 0.000000 0.000000 84.420662 1.886675 9.491079 71.669144 -36.207386 2.864689 0.016876 18.329020 69.488083 -32.132015 -2.601939 9.126534 19.040094 -2.058494 36.387928 -0.000007 0.000043 -46.424980 0.000003 0.000022 -32.587086 0.000003 0.000004 -0.000011 52.051426 16.625963 -15.471674 37.327114 2.148317 -10.496466 37.618397 3.013819 -9.490402 -0.000013 -0.000021 -0.000017 54.607872 6.846776 -11.829084 38.606907 0.295980 -4.266494 38.721130 1.045983 -3.521868 0.000059 -0.000053 0.000008 60.462997 -8.940816 -5.753510 41.118443 -0.161531 5.953861 41.143234 -1.493849 4.564239 0.000012 -0.000676 -0.000003 59.555202 -25.381666 -0.120671 37.225224 -2.143738 17.087000 37.687763 -5.058843 14.253187 -0.000274 -0.000001 0.000023 0.000000 0.000000 0.000000 0.000000 0.000000 0.000000 -89.868713 -1.092285 7.073420 -73.716660 22.008030 -5.528527 -3.352845 -26.514427 75.998604 33.034100 7.557779 14.463247 -18.391153 2.143643 36.641991 0.000014 0.000010 -44.453613 -0.000040 0.000010 -30.787271 -0.001615 -0.000012 -0.000797 -53.206944 16.503445 -7.911887 -33.616699 1.257319 9.490252 -33.677155 2.134615 8.553419 0.000009 0.001009 0.000010 -51.073357 6.780989 -6.611696 -34.668972 -0.074525 3.795642 -34.389553 0.694441 3.142371 -0.000053 -0.000042 0.000148 -51.465340 -8.618699 -4.921409 -36.007977 0.495828 -5.118817 -36.070328 -0.976388 -3.858978 -0.000642 0.000006 -0.000006 -49.062778 -24.815624 -5.118226 -32.610748 0.172591 -14.403227 -32.625153 -3.015447 -11.606319 0.000067 -0.000003 -0.000015 0.000000 0.000000 0.000000 0.000000 0.000000 0.000000 -18.097721 -6.004875 -11.557643 -0.613260 -0.618033 55.639153 8.142198 -10.462265 -3.938093 0.048962 -0.214268 -27.577206 0.000000 0.000000 0.000000 0.000000 0.000000 0.000000 0.000000 0.000000 0.000000 3.145084 0.969886 -16.347136 0.608301 0.838278 45.074322 -6.522464 8.942135 9.871881 -0.620629 -1.060183 -29.216160 0.000000 0.000000 0.000000 0.000000 0.000000 0.000000 0.000000 0.000000 0.000000 
